<svg width="198" height="49" viewBox="0 0 198 49" fill="none" xmlns="http://www.w3.org/2000/svg">
<path d="M0 10.966V16.9895C0 17.5053 0.642757 17.7415 0.976736 17.3484L5.16984 12.413C6.79546 10.4996 9.05804 9.23847 11.5404 8.86208L12.8519 8.66322C13.7232 8.53111 14.6137 8.62104 15.4409 8.92468L16.2374 9.21702C18.8235 10.1663 19.9598 13.1936 18.6368 15.61C18.237 16.3403 17.6427 16.9455 16.9197 17.3585L11.231 20.6082C10.0826 21.2642 10.4201 23.003 11.7305 23.1818L19.2271 24.2048H24.7197C27.0939 24.2048 29.4156 23.506 31.3953 22.1954L33.9361 20.5133C37.2625 18.3113 38.5736 14.0685 37.0694 10.3738C36.5582 9.11796 35.7496 8.00507 34.7132 7.13077L32.7644 5.48672C29.8945 3.0657 26.3629 1.56381 22.6283 1.1762L15.1841 0.403556C12.6149 0.136901 10.0185 0.356059 7.53037 1.04959C3.07911 2.29033 0 6.34508 0 10.966Z" fill="white"/>
<path d="M38.6923 43.0006L39.2579 42.3291C40.4462 40.9183 41.0978 39.133 41.0978 37.2884C41.0978 35.0957 40.1778 33.0037 38.5617 31.5217L37.2518 30.3204C35.8316 29.018 34.1155 28.081 32.252 27.5906L30.6716 27.1747C29.1369 26.7708 27.5565 26.5663 25.9695 26.5663H19.2271H10.1463C9.54473 26.5663 9.35685 27.3795 9.89746 27.6434L17.4914 31.3502C18.9768 32.0753 19.5858 33.8727 18.847 35.3514C18.3435 36.3593 17.3136 36.996 16.187 36.996H12.6532C10.8331 36.996 9.05882 36.4244 7.58093 35.3619L1.01127 30.6387C0.588843 30.335 0 30.6369 0 31.1571V32.4592C0 38.8617 4.27001 44.4783 10.4394 46.1907C12.9216 46.8797 15.4858 47.2289 18.0619 47.2289H26.8199C27.8447 47.2289 28.8675 47.1407 29.8772 46.9654L32.6187 46.4892C34.9907 46.0773 37.1413 44.8419 38.6923 43.0006Z" fill="white"/>
<path d="M39.9465 0H32.2358C30.995 0 30.4689 1.57986 31.4619 2.32377L36.2612 5.91892C38.4417 7.55232 39.9165 9.95631 40.3848 12.6402L40.5624 13.6583C40.9069 15.6324 40.5008 17.6639 39.4239 19.3538C38.6324 20.596 37.5145 21.5965 36.1926 22.246L34.48 23.0873C33.4621 23.5874 33.359 24.9983 34.2934 25.641L38.2138 28.3373L39.5234 29.4991C40.5665 30.4243 41.457 31.5083 42.1621 32.7111L42.9784 34.1034C43.6355 35.2244 43.9819 36.5002 43.9819 37.7996C43.9819 39.9143 44.8979 41.9254 46.4934 43.3135L46.5954 43.4022C47.4074 44.1086 48.3601 44.6346 49.3906 44.9455L53.2403 46.1068C55.7069 46.8508 58.2692 47.2289 60.8455 47.2289H64.0201C66.3336 47.2289 68.6174 46.7076 70.7018 45.7037L75.2755 43.5008C75.5541 43.3666 75.777 43.1393 75.9057 42.8582C76.3843 41.8133 75.3979 40.6959 74.3017 41.0411L74.2239 41.0656C74.0915 41.1073 73.9535 41.1285 73.8147 41.1285H70.8062C68.6386 41.1285 66.4795 40.7903 64.4152 40.1289C56.2796 37.5223 50.4994 30.2599 49.8061 21.745L49.4312 17.1413C49.3244 15.8292 49.4855 14.5091 49.9046 13.2612C51.126 9.6244 50.0921 5.60943 47.266 3.01498L46.9545 2.72902C45.0427 0.973863 42.5418 0 39.9465 0Z" fill="white"/>
<path d="M64.4189 24.2048H71.4033C71.8673 24.2048 72.3298 24.1532 72.7824 24.051C76.2252 23.2734 78.3447 19.8047 77.4658 16.3864L77.4276 16.238C77.243 15.5199 76.9351 14.8392 76.5176 14.2263L73.1251 9.24549C71.1838 6.39535 68.6491 3.99877 65.6948 2.22009L65.5878 2.15568C64.5798 1.5488 65.01 0 66.1866 0C74.2008 0 81.6486 4.13261 85.8895 10.9328L90.6075 18.498L94.9336 24.992L96.5495 24.0297C97.0737 23.7176 97.7518 23.9773 97.9334 24.5596L99.6648 30.1122C100.192 31.8016 101.016 33.3834 102.098 34.7831L102.427 35.2076C104.118 37.3941 106.453 38.9946 109.102 39.7834L112.229 40.7143C114.346 41.3448 116.638 40.9155 118.384 39.5611L119.649 38.5799C122.318 36.5099 122.501 32.5439 120.035 30.2364C119.309 29.5562 119.79 28.3373 120.785 28.3373H137.297C141.556 28.3373 145.186 31.4246 145.871 35.6279C146.331 38.4549 145.368 41.3271 143.297 43.3055L142.697 43.8786C141.477 45.0446 139.987 45.8915 138.361 46.3442L133.061 47.8197C130.248 48.6029 127.341 49 124.42 49H121.477C116.469 49 111.489 48.2369 106.71 46.7369C105.652 48.1608 103.982 49 102.208 49H101.074C99.4256 49 97.8187 48.4819 96.4804 47.519L93.0803 45.0725C91.4405 43.8925 89.9807 42.4806 88.7468 40.881L83.0877 33.5444C80.5548 30.2607 76.6422 28.3373 72.4951 28.3373H72.1834C69.1842 28.3373 66.2845 27.2622 64.0103 25.307C63.5693 24.9279 63.8374 24.2048 64.4189 24.2048Z" fill="white"/>
<path d="M127.238 2.58067L122.374 1.22089C119.49 0.414808 116.476 0.182683 113.503 0.537685L106.696 1.35046C99.8525 2.16766 94.5316 7.69258 93.9722 14.5622C93.9722 16.4633 94.6719 18.298 95.9377 19.7163L97.151 21.0758C97.7799 21.7804 98.9328 21.5614 99.2596 20.6752L100.663 16.8697C101.761 13.8898 104.04 11.4947 106.961 10.2488L108.596 9.55175C111.829 8.17301 115.572 8.84375 118.125 11.2594L120.047 13.078C122.613 15.5057 122.663 19.5743 120.158 22.0649C119.366 22.8526 119.924 24.2048 121.041 24.2048H140.823C142.529 24.2048 144.019 23.0495 144.444 21.3969C144.601 20.7862 144.601 20.1456 144.444 19.5348L144.078 18.1102C143.842 17.1932 143.47 16.3168 142.974 15.5103L141.752 13.5228C138.464 8.17775 133.281 4.27002 127.238 2.58067Z" fill="white"/>
<path d="M158.143 28.3373L151.653 21.253L140.838 9.249L133.059 1.76518C132.394 1.12487 132.847 0 133.771 0H142.886C147.911 0 152.165 3.70749 152.851 8.68477C153.165 10.96 154.248 13.0594 155.92 14.634L156.288 14.9807C157.51 16.1309 158.968 16.9997 160.561 17.526L166.969 19.643C170.178 20.7032 173.112 22.4607 175.561 24.7895L177.199 26.3465C178.577 27.6574 179.647 29.2581 180.332 31.033C182.926 37.7585 179.479 45.3013 172.696 47.7416L171.509 48.1688C169.98 48.7188 168.367 49 166.743 49H157.997C156.979 49 155.966 48.8448 154.993 48.5396L153.519 48.077C150.892 47.2522 148.932 45.046 148.424 42.3391L148.355 41.9737C148.109 40.6636 149.714 39.8338 150.678 40.7546C152.322 42.3244 154.67 42.9811 156.883 42.4634C161.58 41.3644 163.629 35.825 160.778 31.9336L158.143 28.3373Z" fill="white"/>
<path d="M166.795 8.50747V13.3926C166.795 14.3286 167.962 14.7559 168.566 14.0412L173.436 8.28206C174.758 6.71877 176.432 5.49151 178.32 4.70119L185.754 1.59001C186.062 1.46129 186.262 1.16048 186.262 0.827063C186.262 0.370289 185.892 0 185.435 0H175.302C173.083 0 170.953 0.866724 169.364 2.41537C167.721 4.01662 166.795 6.21344 166.795 8.50747Z" fill="white"/>
<path d="M187.717 39.3292L182.92 32.0684C182.374 31.2429 183.263 30.2239 184.155 30.6523L194.504 35.6236C197.1 36.8706 198.418 39.8086 197.623 42.5765C197.269 43.8079 196.524 44.8908 195.5 45.6617L191.813 48.4393C191.33 48.8032 190.742 49 190.137 49C188.233 49 186.889 47.1321 187.496 45.3268L188.219 43.1729C188.653 41.8827 188.467 40.4648 187.717 39.3292Z" fill="white"/>
</svg>
